<svg width="266" height="24" viewBox="0 0 266 24" fill="none" xmlns="http://www.w3.org/2000/svg">
<path d="M9.63063 23.256C6.98529 23.256 4.79863 22.2 3.07063 20.088C1.34263 17.9547 0.478625 15.2667 0.478625 12.024C0.478625 10.2107 0.777292 8.568 1.37463 7.096C1.99329 5.624 2.77196 4.46133 3.71063 3.608C4.67063 2.73333 5.68396 2.06133 6.75063 1.592C7.81729 1.12267 8.86263 0.887999 9.88663 0.887999C10.612 0.887999 11.4546 0.994665 12.4146 1.208C13.3746 1.4 13.972 1.496 14.2066 1.496C14.9533 1.496 15.3053 1.15466 15.2626 0.471998L15.4546 0.407999L18.2386 7.928L18.0146 8.024C16.564 5.50667 15.188 3.736 13.8866 2.712C12.5853 1.688 11.252 1.176 9.88663 1.176C7.98796 1.176 6.33463 1.96533 4.92663 3.544C3.53996 5.10133 2.84663 7.17067 2.84663 9.752C2.84663 13.2293 3.66796 16.0347 5.31063 18.168C6.97463 20.3013 9.01196 21.368 11.4226 21.368C14.3666 21.368 16.5746 19.896 18.0466 16.952L18.2706 17.048C17.4813 18.84 16.3186 20.3227 14.7826 21.496C13.2466 22.6693 11.5293 23.256 9.63063 23.256ZM38.7551 20.952C38.7551 21.6773 38.8618 22.1573 39.0751 22.392C39.3098 22.6267 39.7578 22.744 40.4191 22.744H40.4831V23H39.7791C39.5231 23 39.1391 22.9893 38.6271 22.968C38.1365 22.9253 37.7205 22.904 37.3791 22.904C37.0378 22.904 36.6111 22.9253 36.0991 22.968C35.6085 22.9893 35.2351 23 34.9791 23H34.2751V22.744H34.3071C34.9898 22.744 35.4378 22.6267 35.6511 22.392C35.8858 22.1573 36.0031 21.6773 36.0031 20.952V12.088H24.9631V20.952C24.9631 21.656 25.0805 22.136 25.3151 22.392C25.5498 22.6267 25.9978 22.744 26.6591 22.744H26.7231V23H26.0191C25.7631 23 25.3791 22.9893 24.8671 22.968C24.3765 22.9253 23.9605 22.904 23.6191 22.904C23.2778 22.904 22.8511 22.9253 22.3391 22.968C21.8271 22.9893 21.4538 23 21.2191 23H20.5151V22.744H20.5471C21.2085 22.744 21.6565 22.6267 21.8911 22.392C22.1258 22.136 22.2431 21.656 22.2431 20.952V3.256C22.2431 2.552 22.1258 2.08267 21.8911 1.848C21.6565 1.592 21.2085 1.464 20.5471 1.464H20.5151V1.208H21.2191C21.4538 1.208 21.8271 1.22933 22.3391 1.272C22.8511 1.29333 23.2778 1.304 23.6191 1.304C23.9605 1.304 24.3765 1.29333 24.8671 1.272C25.3791 1.22933 25.7631 1.208 26.0191 1.208H26.7231V1.464H26.6591C25.9978 1.464 25.5498 1.592 25.3151 1.848C25.0805 2.08267 24.9631 2.552 24.9631 3.256V11.768H36.0031V3.256C36.0031 2.53067 35.8858 2.05067 35.6511 1.816C35.4378 1.58133 34.9898 1.464 34.3071 1.464H34.2751V1.208H34.9791C35.2351 1.208 35.6085 1.22933 36.0991 1.272C36.6111 1.29333 37.0378 1.304 37.3791 1.304C37.7205 1.304 38.1365 1.29333 38.6271 1.272C39.1391 1.22933 39.5231 1.208 39.7791 1.208H40.4831V1.464H40.4191C39.7578 1.464 39.3098 1.58133 39.0751 1.816C38.8618 2.05067 38.7551 2.53067 38.7551 3.256V20.952ZM57.7649 23.992L57.5729 23.96C57.6155 23.6613 57.5515 23.4267 57.3809 23.256C57.2102 23.0853 56.9115 23 56.4849 23H49.1249C48.8049 23 48.3355 23 47.7169 23C47.1195 22.9787 46.6182 22.968 46.2129 22.968C45.8715 22.968 45.4449 22.9787 44.9329 23C44.4209 23 44.0475 23 43.8129 23H43.1089V22.744H43.1409C43.8022 22.744 44.2502 22.6267 44.4849 22.392C44.7195 22.136 44.8369 21.656 44.8369 20.952V3.256C44.8369 2.552 44.7195 2.08267 44.4849 1.848C44.2502 1.592 43.8022 1.464 43.1409 1.464H43.1089V1.208H43.8129C44.0475 1.208 44.4209 1.21867 44.9329 1.24C45.4449 1.24 45.8715 1.24 46.2129 1.24C46.6182 1.24 47.1409 1.24 47.7809 1.24C48.4422 1.21867 48.9329 1.208 49.2529 1.208H56.1329C56.5595 1.208 56.8689 1.13333 57.0609 0.983999C57.2529 0.813332 57.3275 0.567999 57.2849 0.247999L57.4769 0.183998L60.2929 7.576L60.0689 7.672C58.1062 4.94133 56.8475 3.288 56.2929 2.712C55.5249 1.92267 54.5222 1.528 53.2849 1.528H47.5569V11.768H51.3969C52.5702 11.768 53.3595 11.4267 53.7649 10.744C54.1702 10.0613 54.4582 8.97333 54.6289 7.48H54.8849V16.504H54.6289C54.5649 15.9067 54.5009 15.4267 54.4369 15.064C54.3729 14.68 54.2662 14.2853 54.1169 13.88C53.9675 13.4533 53.7755 13.1333 53.5409 12.92C53.3275 12.6853 53.0395 12.4933 52.6769 12.344C52.3142 12.1733 51.8875 12.088 51.3969 12.088H47.5569V22.68H53.5729C54.2769 22.68 54.8422 22.5947 55.2689 22.424C55.7169 22.2533 56.2075 21.8907 56.7409 21.336C57.6795 20.312 58.9489 18.5093 60.5489 15.928L60.7729 16.024L57.7649 23.992ZM82.0261 23C81.4715 23 80.9381 22.9893 80.4261 22.968C79.9141 22.9253 79.4661 22.904 79.0821 22.904C78.8261 22.904 78.4955 22.9253 78.0901 22.968C77.7061 22.9893 77.4075 23 77.1941 23L71.6581 12.728H67.3381V20.952C67.3381 21.656 67.4555 22.136 67.6901 22.392C67.9248 22.6267 68.3728 22.744 69.0341 22.744H69.0981V23H68.3941C68.1381 23 67.7541 22.9893 67.2421 22.968C66.7515 22.9253 66.3355 22.904 65.9941 22.904C65.6528 22.904 65.2261 22.9253 64.7141 22.968C64.2021 22.9893 63.8288 23 63.5941 23H62.8901V22.744H62.9221C63.5835 22.744 64.0315 22.6267 64.2661 22.392C64.5008 22.136 64.6181 21.656 64.6181 20.952V3.256C64.6181 2.552 64.5008 2.08267 64.2661 1.848C64.0315 1.592 63.5835 1.464 62.9221 1.464H62.8901V1.208H63.5941C63.8288 1.208 64.2021 1.21867 64.7141 1.24C65.2261 1.24 65.6528 1.24 65.9941 1.24C66.3995 1.24 66.9008 1.24 67.4981 1.24C68.1168 1.21867 68.5861 1.208 68.9061 1.208H72.2661C74.3995 1.208 76.1488 1.72 77.5141 2.744C78.9008 3.768 79.5941 5.16533 79.5941 6.936C79.5941 8.55733 78.9328 9.93333 77.6101 11.064C76.3088 12.1733 74.5381 12.728 72.2981 12.728H72.0741C72.4795 13.3893 72.9275 13.848 73.4181 14.104C73.9088 14.3387 74.6555 14.456 75.6581 14.456L78.5381 19.8C79.1995 21.016 79.7435 21.8053 80.1701 22.168C80.6181 22.5093 81.2368 22.7013 82.0261 22.744V23ZM76.5861 6.968C76.5861 5.13333 76.2555 3.768 75.5941 2.872C74.9541 1.976 73.7915 1.528 72.1061 1.528H67.3381V12.376H72.1061C73.7701 12.376 74.9328 11.9493 75.5941 11.096C76.2555 10.2427 76.5861 8.86667 76.5861 6.968ZM87.9006 20.952C87.9006 21.656 88.018 22.136 88.2526 22.392C88.4873 22.6267 88.9353 22.744 89.5966 22.744H89.6606V23H88.9566C88.7006 23 88.3166 22.9893 87.8046 22.968C87.314 22.9253 86.898 22.904 86.5566 22.904C86.2153 22.904 85.7886 22.9253 85.2766 22.968C84.7646 22.9893 84.3913 23 84.1566 23H83.4526V22.744H83.4846C84.146 22.744 84.594 22.6267 84.8286 22.392C85.0633 22.136 85.1806 21.656 85.1806 20.952V3.256C85.1806 2.552 85.0633 2.08267 84.8286 1.848C84.594 1.592 84.146 1.464 83.4846 1.464H83.4526V1.208H84.1566C84.3913 1.208 84.7646 1.22933 85.2766 1.272C85.7886 1.29333 86.2153 1.304 86.5566 1.304C86.898 1.304 87.314 1.29333 87.8046 1.272C88.3166 1.22933 88.7006 1.208 88.9566 1.208H89.6606V1.464H89.5966C88.9353 1.464 88.4873 1.592 88.2526 1.848C88.018 2.08267 87.9006 2.552 87.9006 3.256V20.952ZM107.566 16.856C107.566 18.8613 106.872 20.44 105.486 21.592C104.12 22.744 102.584 23.32 100.878 23.32C99.9176 23.32 98.7976 23.16 97.5176 22.84C96.259 22.4987 95.555 22.328 95.4056 22.328C94.6376 22.328 94.2856 22.6693 94.3496 23.352L94.1576 23.416L91.6936 15.864L91.9176 15.768C92.771 17.368 93.635 18.6907 94.5096 19.736C95.3843 20.7813 96.227 21.528 97.0376 21.976C97.8483 22.4027 98.5203 22.6907 99.0536 22.84C99.6083 22.968 100.206 23.032 100.846 23.032C102.232 23.032 103.384 22.616 104.302 21.784C105.24 20.9307 105.71 19.9067 105.71 18.712C105.71 16.4293 104.003 14.6693 100.59 13.432L97.9336 12.44C96.3976 11.864 95.1283 11.0747 94.1256 10.072C93.123 9.06933 92.6216 7.832 92.6216 6.36C92.6216 4.71733 93.2083 3.39467 94.3816 2.392C95.5763 1.38933 97.059 0.887999 98.8296 0.887999C99.4696 0.887999 100.27 0.994665 101.23 1.208C102.19 1.4 102.798 1.496 103.054 1.496C103.416 1.496 103.694 1.42133 103.886 1.272C104.078 1.10133 104.163 0.834665 104.142 0.471998L104.334 0.407999L106.99 7.224L106.766 7.32C105.379 4.97333 104.046 3.36267 102.766 2.488C101.507 1.61333 100.195 1.176 98.8296 1.176C97.379 1.176 96.259 1.528 95.4696 2.232C94.6803 2.936 94.2856 3.832 94.2856 4.92C94.2856 6.008 94.659 6.92533 95.4056 7.672C96.1736 8.39733 97.411 9.06933 99.1176 9.688L101.838 10.712C105.656 12.1413 107.566 14.1893 107.566 16.856ZM128.13 20.952C128.13 21.6773 128.237 22.1573 128.45 22.392C128.685 22.6267 129.133 22.744 129.794 22.744H129.858V23H129.154C128.898 23 128.514 22.9893 128.002 22.968C127.511 22.9253 127.095 22.904 126.754 22.904C126.413 22.904 125.986 22.9253 125.474 22.968C124.983 22.9893 124.61 23 124.354 23H123.65V22.744H123.682C124.365 22.744 124.813 22.6267 125.026 22.392C125.261 22.1573 125.378 21.6773 125.378 20.952V12.088H114.338V20.952C114.338 21.656 114.455 22.136 114.69 22.392C114.925 22.6267 115.373 22.744 116.034 22.744H116.098V23H115.394C115.138 23 114.754 22.9893 114.242 22.968C113.751 22.9253 113.335 22.904 112.994 22.904C112.653 22.904 112.226 22.9253 111.714 22.968C111.202 22.9893 110.829 23 110.594 23H109.89V22.744H109.922C110.583 22.744 111.031 22.6267 111.266 22.392C111.501 22.136 111.618 21.656 111.618 20.952V3.256C111.618 2.552 111.501 2.08267 111.266 1.848C111.031 1.592 110.583 1.464 109.922 1.464H109.89V1.208H110.594C110.829 1.208 111.202 1.22933 111.714 1.272C112.226 1.29333 112.653 1.304 112.994 1.304C113.335 1.304 113.751 1.29333 114.242 1.272C114.754 1.22933 115.138 1.208 115.394 1.208H116.098V1.464H116.034C115.373 1.464 114.925 1.592 114.69 1.848C114.455 2.08267 114.338 2.552 114.338 3.256V11.768H125.378V3.256C125.378 2.53067 125.261 2.05067 125.026 1.816C124.813 1.58133 124.365 1.464 123.682 1.464H123.65V1.208H124.354C124.61 1.208 124.983 1.22933 125.474 1.272C125.986 1.29333 126.413 1.304 126.754 1.304C127.095 1.304 127.511 1.29333 128.002 1.272C128.514 1.22933 128.898 1.208 129.154 1.208H129.858V1.464H129.794C129.133 1.464 128.685 1.58133 128.45 1.816C128.237 2.05067 128.13 2.53067 128.13 3.256V20.952ZM147.14 23.992L146.948 23.96C146.991 23.6613 146.927 23.4267 146.756 23.256C146.585 23.0853 146.287 23 145.86 23H138.5C138.18 23 137.711 23 137.092 23C136.495 22.9787 135.993 22.968 135.588 22.968C135.247 22.968 134.82 22.9787 134.308 23C133.796 23 133.423 23 133.188 23H132.484V22.744H132.516C133.177 22.744 133.625 22.6267 133.86 22.392C134.095 22.136 134.212 21.656 134.212 20.952V3.256C134.212 2.552 134.095 2.08267 133.86 1.848C133.625 1.592 133.177 1.464 132.516 1.464H132.484V1.208H133.188C133.423 1.208 133.796 1.21867 134.308 1.24C134.82 1.24 135.247 1.24 135.588 1.24C135.993 1.24 136.516 1.24 137.156 1.24C137.817 1.21867 138.308 1.208 138.628 1.208H145.508C145.935 1.208 146.244 1.13333 146.436 0.983999C146.628 0.813332 146.703 0.567999 146.66 0.247999L146.852 0.183998L149.668 7.576L149.444 7.672C147.481 4.94133 146.223 3.288 145.668 2.712C144.9 1.92267 143.897 1.528 142.66 1.528H136.932V11.768H140.772C141.945 11.768 142.735 11.4267 143.14 10.744C143.545 10.0613 143.833 8.97333 144.004 7.48H144.26V16.504H144.004C143.94 15.9067 143.876 15.4267 143.812 15.064C143.748 14.68 143.641 14.2853 143.492 13.88C143.343 13.4533 143.151 13.1333 142.916 12.92C142.703 12.6853 142.415 12.4933 142.052 12.344C141.689 12.1733 141.263 12.088 140.772 12.088H136.932V22.68H142.948C143.652 22.68 144.217 22.5947 144.644 22.424C145.092 22.2533 145.583 21.8907 146.116 21.336C147.055 20.312 148.324 18.5093 149.924 15.928L150.148 16.024L147.14 23.992ZM167.401 12.12C167.401 8.216 166.878 5.47467 165.833 3.896C164.788 2.31733 162.9 1.528 160.169 1.528H156.713V22.68H160.169C162.9 22.68 164.788 21.8907 165.833 20.312C166.878 18.7333 167.401 16.0027 167.401 12.12ZM170.505 12.12C170.505 15.512 169.577 18.1787 167.721 20.12C165.886 22.04 163.54 23 160.681 23H158.441C158.1 23 157.609 23 156.969 23C156.35 22.9787 155.817 22.968 155.369 22.968C155.028 22.968 154.601 22.9787 154.089 23C153.577 23 153.204 23 152.969 23H152.265V22.744H152.297C152.958 22.744 153.406 22.6267 153.641 22.392C153.876 22.136 153.993 21.656 153.993 20.952V3.256C153.993 2.552 153.876 2.08267 153.641 1.848C153.406 1.592 152.958 1.464 152.297 1.464H152.265V1.208H152.969C153.204 1.208 153.577 1.21867 154.089 1.24C154.601 1.24 155.028 1.24 155.369 1.24C155.817 1.24 156.35 1.24 156.969 1.24C157.609 1.21867 158.1 1.208 158.441 1.208H160.681C163.561 1.208 165.918 2.168 167.753 4.088C169.588 6.008 170.505 8.68533 170.505 12.12ZM201.719 15.576L198.583 23.992L198.391 23.96C198.434 23.6613 198.37 23.4267 198.199 23.256C198.028 23.0853 197.73 23 197.303 23H190.519C190.263 23 189.879 23 189.367 23C188.876 22.9787 188.46 22.968 188.119 22.968C187.778 22.968 187.351 22.9787 186.839 23C186.327 23 185.954 23 185.719 23H185.015V22.744H185.047C185.708 22.744 186.156 22.6267 186.391 22.392C186.626 22.136 186.743 21.656 186.743 20.952V3.256C186.743 2.552 186.626 2.08267 186.391 1.848C186.156 1.592 185.708 1.464 185.047 1.464H185.015V1.208H185.719C185.954 1.208 186.327 1.22933 186.839 1.272C187.351 1.29333 187.778 1.304 188.119 1.304C188.46 1.304 188.876 1.29333 189.367 1.272C189.879 1.22933 190.263 1.208 190.519 1.208H191.223V1.464H191.159C190.498 1.464 190.05 1.592 189.815 1.848C189.58 2.08267 189.463 2.552 189.463 3.256V22.68H194.423C195.106 22.68 195.66 22.5947 196.087 22.424C196.535 22.2533 197.015 21.8907 197.527 21.336C198.231 20.568 199.554 18.616 201.495 15.48L201.719 15.576ZM207.588 20.952C207.588 21.656 207.705 22.136 207.94 22.392C208.175 22.6267 208.623 22.744 209.284 22.744H209.348V23H208.644C208.388 23 208.004 22.9893 207.492 22.968C207.001 22.9253 206.585 22.904 206.244 22.904C205.903 22.904 205.476 22.9253 204.964 22.968C204.452 22.9893 204.079 23 203.844 23H203.14V22.744H203.172C203.833 22.744 204.281 22.6267 204.516 22.392C204.751 22.136 204.868 21.656 204.868 20.952V3.256C204.868 2.552 204.751 2.08267 204.516 1.848C204.281 1.592 203.833 1.464 203.172 1.464H203.14V1.208H203.844C204.079 1.208 204.452 1.22933 204.964 1.272C205.476 1.29333 205.903 1.304 206.244 1.304C206.585 1.304 207.001 1.29333 207.492 1.272C208.004 1.22933 208.388 1.208 208.644 1.208H209.348V1.464H209.284C208.623 1.464 208.175 1.592 207.94 1.848C207.705 2.08267 207.588 2.552 207.588 3.256V20.952ZM228.657 15.576L225.521 23.992L225.329 23.96C225.371 23.6613 225.307 23.4267 225.137 23.256C224.966 23.0853 224.667 23 224.241 23H217.457C217.201 23 216.817 23 216.305 23C215.814 22.9787 215.398 22.968 215.057 22.968C214.715 22.968 214.289 22.9787 213.777 23C213.265 23 212.891 23 212.657 23H211.953V22.744H211.985C212.646 22.744 213.094 22.6267 213.329 22.392C213.563 22.136 213.681 21.656 213.681 20.952V3.256C213.681 2.552 213.563 2.08267 213.329 1.848C213.094 1.592 212.646 1.464 211.985 1.464H211.953V1.208H212.657C212.891 1.208 213.265 1.22933 213.777 1.272C214.289 1.29333 214.715 1.304 215.057 1.304C215.398 1.304 215.814 1.29333 216.305 1.272C216.817 1.22933 217.201 1.208 217.457 1.208H218.161V1.464H218.097C217.435 1.464 216.987 1.592 216.753 1.848C216.518 2.08267 216.401 2.552 216.401 3.256V22.68H221.361C222.043 22.68 222.598 22.5947 223.025 22.424C223.473 22.2533 223.953 21.8907 224.465 21.336C225.169 20.568 226.491 18.616 228.433 15.48L228.657 15.576ZM246.782 15.576L243.646 23.992L243.454 23.96C243.496 23.6613 243.432 23.4267 243.262 23.256C243.091 23.0853 242.792 23 242.366 23H235.582C235.326 23 234.942 23 234.43 23C233.939 22.9787 233.523 22.968 233.182 22.968C232.84 22.968 232.414 22.9787 231.902 23C231.39 23 231.016 23 230.782 23H230.078V22.744H230.11C230.771 22.744 231.219 22.6267 231.454 22.392C231.688 22.136 231.806 21.656 231.806 20.952V3.256C231.806 2.552 231.688 2.08267 231.454 1.848C231.219 1.592 230.771 1.464 230.11 1.464H230.078V1.208H230.782C231.016 1.208 231.39 1.22933 231.902 1.272C232.414 1.29333 232.84 1.304 233.182 1.304C233.523 1.304 233.939 1.29333 234.43 1.272C234.942 1.22933 235.326 1.208 235.582 1.208H236.286V1.464H236.222C235.56 1.464 235.112 1.592 234.878 1.848C234.643 2.08267 234.526 2.552 234.526 3.256V22.68H239.486C240.168 22.68 240.723 22.5947 241.15 22.424C241.598 22.2533 242.078 21.8907 242.59 21.336C243.294 20.568 244.616 18.616 246.558 15.48L246.782 15.576ZM256.623 20.952C256.623 21.656 256.741 22.136 256.975 22.392C257.21 22.6267 257.658 22.744 258.319 22.744H258.351V23H257.647C257.413 23 257.039 22.9893 256.527 22.968C256.015 22.9253 255.589 22.904 255.247 22.904C254.906 22.904 254.479 22.9253 253.967 22.968C253.477 22.9893 253.103 23 252.847 23H252.143V22.744H252.207C252.869 22.744 253.317 22.6267 253.551 22.392C253.786 22.136 253.903 21.656 253.903 20.952V13.08L247.503 3.096C247.119 2.52 246.735 2.104 246.351 1.848C245.989 1.592 245.53 1.464 244.975 1.464V1.208H246.031C246.181 1.208 246.522 1.22933 247.055 1.272C247.589 1.29333 248.037 1.304 248.399 1.304C248.762 1.304 249.221 1.29333 249.775 1.272C250.351 1.22933 250.714 1.208 250.863 1.208H252.015V1.464C251.013 1.464 250.511 1.752 250.511 2.328C250.511 2.60533 250.618 2.936 250.831 3.32L256.463 12.056L260.527 5.336C261.146 4.35467 261.455 3.59733 261.455 3.064C261.455 2.01867 260.762 1.48533 259.375 1.464H259.343V1.208H259.759C260.015 1.208 260.463 1.22933 261.103 1.272C261.765 1.29333 262.234 1.304 262.511 1.304C262.682 1.304 263.077 1.29333 263.695 1.272C264.335 1.22933 264.751 1.208 264.943 1.208H265.519V1.464H265.487C264.57 1.48533 263.759 1.848 263.055 2.552C262.351 3.23466 261.594 4.248 260.783 5.592L256.623 12.376V20.952Z" fill="white"/>
</svg>
